<?xml version="1.0" encoding="UTF-8" standalone="no"?>
<!DOCTYPE svg PUBLIC "-//W3C//DTD SVG 1.1//EN"
 "http://www.w3.org/Graphics/SVG/1.1/DTD/svg11.dtd">
<!-- Generated by graphviz version 2.44.1 (20200629.0846)
 -->
<!-- Pages: 1 -->
<svg width="398pt" height="322pt"
 viewBox="0.00 0.00 398.44 321.91" xmlns="http://www.w3.org/2000/svg" xmlns:xlink="http://www.w3.org/1999/xlink">
<g id="graph0" class="graph" transform="scale(1 1) rotate(0) translate(4 317.91)">
<polygon fill="white" stroke="transparent" points="-4,4 -4,-317.91 394.44,-317.91 394.44,4 -4,4"/>
<g id="clust1" class="cluster">
<title>cluster4,862</title>
<path fill="none" stroke="black" d="M98.72,-8C98.72,-8 291.72,-8 291.72,-8 297.72,-8 303.72,-14 303.72,-20 303.72,-20 303.72,-198.95 303.72,-198.95 303.72,-204.95 297.72,-210.95 291.72,-210.95 291.72,-210.95 98.72,-210.95 98.72,-210.95 92.72,-210.95 86.72,-204.95 86.72,-198.95 86.72,-198.95 86.72,-20 86.72,-20 86.72,-14 92.72,-8 98.72,-8"/>
<text text-anchor="middle" x="280.22" y="-15.8" font-family="Times,serif" font-size="14.00">4,862</text>
</g>
<!-- β -->
<g id="node1" class="node">
<title>β</title>
<ellipse fill="none" stroke="black" cx="41.72" cy="-276.43" rx="41.94" ry="37.45"/>
<text text-anchor="middle" x="41.72" y="-287.73" font-family="Times,serif" font-size="14.00">β</text>
<text text-anchor="middle" x="41.72" y="-272.73" font-family="Times,serif" font-size="14.00">~</text>
<text text-anchor="middle" x="41.72" y="-257.73" font-family="Times,serif" font-size="14.00">Normal</text>
</g>
<!-- μ -->
<g id="node7" class="node">
<title>μ</title>
<polygon fill="none" stroke="black" points="186.22,-202.95 95.22,-202.95 95.22,-149.95 186.22,-149.95 186.22,-202.95"/>
<text text-anchor="middle" x="140.72" y="-187.75" font-family="Times,serif" font-size="14.00">μ</text>
<text text-anchor="middle" x="140.72" y="-172.75" font-family="Times,serif" font-size="14.00">~</text>
<text text-anchor="middle" x="140.72" y="-157.75" font-family="Times,serif" font-size="14.00">Deterministic</text>
</g>
<!-- β&#45;&gt;μ -->
<g id="edge2" class="edge">
<title>β&#45;&gt;μ</title>
<path fill="none" stroke="black" d="M69.3,-248.14C81.05,-236.51 94.86,-222.84 107.2,-210.63"/>
<polygon fill="black" stroke="black" points="110.01,-212.77 114.65,-203.25 105.08,-207.8 110.01,-212.77"/>
</g>
<!-- σ_b -->
<g id="node2" class="node">
<title>σ_b</title>
<ellipse fill="none" stroke="black" cx="247.72" cy="-276.43" rx="41.94" ry="37.45"/>
<text text-anchor="middle" x="247.72" y="-287.73" font-family="Times,serif" font-size="14.00">σ_b</text>
<text text-anchor="middle" x="247.72" y="-272.73" font-family="Times,serif" font-size="14.00">~</text>
<text text-anchor="middle" x="247.72" y="-257.73" font-family="Times,serif" font-size="14.00">Normal</text>
</g>
<!-- σ -->
<g id="node5" class="node">
<title>σ</title>
<polygon fill="none" stroke="black" points="295.22,-202.95 204.22,-202.95 204.22,-149.95 295.22,-149.95 295.22,-202.95"/>
<text text-anchor="middle" x="249.72" y="-187.75" font-family="Times,serif" font-size="14.00">σ</text>
<text text-anchor="middle" x="249.72" y="-172.75" font-family="Times,serif" font-size="14.00">~</text>
<text text-anchor="middle" x="249.72" y="-157.75" font-family="Times,serif" font-size="14.00">Deterministic</text>
</g>
<!-- σ_b&#45;&gt;σ -->
<g id="edge3" class="edge">
<title>σ_b&#45;&gt;σ</title>
<path fill="none" stroke="black" d="M248.46,-238.95C248.64,-230.53 248.82,-221.59 248.99,-213.2"/>
<polygon fill="black" stroke="black" points="252.49,-213.03 249.2,-202.96 245.5,-212.89 252.49,-213.03"/>
</g>
<!-- α -->
<g id="node3" class="node">
<title>α</title>
<ellipse fill="none" stroke="black" cx="142.72" cy="-276.43" rx="41.94" ry="37.45"/>
<text text-anchor="middle" x="142.72" y="-287.73" font-family="Times,serif" font-size="14.00">α</text>
<text text-anchor="middle" x="142.72" y="-272.73" font-family="Times,serif" font-size="14.00">~</text>
<text text-anchor="middle" x="142.72" y="-257.73" font-family="Times,serif" font-size="14.00">Normal</text>
</g>
<!-- α&#45;&gt;μ -->
<g id="edge1" class="edge">
<title>α&#45;&gt;μ</title>
<path fill="none" stroke="black" d="M141.97,-238.95C141.8,-230.53 141.62,-221.59 141.45,-213.2"/>
<polygon fill="black" stroke="black" points="144.94,-212.89 141.24,-202.96 137.94,-213.03 144.94,-212.89"/>
</g>
<!-- σ_m -->
<g id="node4" class="node">
<title>σ_m</title>
<ellipse fill="none" stroke="black" cx="348.72" cy="-276.43" rx="41.94" ry="37.45"/>
<text text-anchor="middle" x="348.72" y="-287.73" font-family="Times,serif" font-size="14.00">σ_m</text>
<text text-anchor="middle" x="348.72" y="-272.73" font-family="Times,serif" font-size="14.00">~</text>
<text text-anchor="middle" x="348.72" y="-257.73" font-family="Times,serif" font-size="14.00">Normal</text>
</g>
<!-- σ_m&#45;&gt;σ -->
<g id="edge4" class="edge">
<title>σ_m&#45;&gt;σ</title>
<path fill="none" stroke="black" d="M321.14,-248.14C309.39,-236.51 295.58,-222.84 283.24,-210.63"/>
<polygon fill="black" stroke="black" points="285.36,-207.8 275.79,-203.25 280.43,-212.77 285.36,-207.8"/>
</g>
<!-- Runs -->
<g id="node6" class="node">
<title>Runs</title>
<ellipse fill="lightgrey" stroke="black" cx="194.72" cy="-76.48" rx="41.94" ry="37.45"/>
<text text-anchor="middle" x="194.72" y="-87.78" font-family="Times,serif" font-size="14.00">Runs</text>
<text text-anchor="middle" x="194.72" y="-72.78" font-family="Times,serif" font-size="14.00">~</text>
<text text-anchor="middle" x="194.72" y="-57.78" font-family="Times,serif" font-size="14.00">Normal</text>
</g>
<!-- σ&#45;&gt;Runs -->
<g id="edge5" class="edge">
<title>σ&#45;&gt;Runs</title>
<path fill="none" stroke="black" d="M235.27,-149.71C230.05,-140.41 224.02,-129.66 218.22,-119.34"/>
<polygon fill="black" stroke="black" points="221.17,-117.44 213.22,-110.43 215.06,-120.87 221.17,-117.44"/>
</g>
<!-- μ&#45;&gt;Runs -->
<g id="edge6" class="edge">
<title>μ&#45;&gt;Runs</title>
<path fill="none" stroke="black" d="M154.91,-149.71C160.03,-140.41 165.96,-129.66 171.64,-119.34"/>
<polygon fill="black" stroke="black" points="174.79,-120.88 176.55,-110.43 168.66,-117.5 174.79,-120.88"/>
</g>
</g>
</svg>
